<svg xmlns="http://www.w3.org/2000/svg" xmlns:xlink="http://www.w3.org/1999/xlink" width="721" height="589" viewBox="0 0 721 589">
    <defs>
        <path id="prefix__a" d="M.409 6.613c-.067-.015-.134-.032-.201-.052.902-1.29 1.578-2.875 1.893-4.965-.355 2.36-.936 3.909-1.692 5.017zm8.825-5.547C9.207.793 9.187.514 9.172.231c.017.276.05.544.077.81l-.015.025z"/>
    </defs>
    <g fill="none" fill-rule="evenodd">
        <path fill="#F6F6F6" d="M719.927 588.883V241.885c-24.534 10.577-66.256 60.893-82.597 72.53-34.077 24.267-71.338 34.937-111.194 44.912-25.061 6.273-157.8 37.182-154.328 60.379-45.591 9.856-87.44 16.696-134.096 18.977-39.567 1.931-76.473 9.802-110.401 31.754C105.555 484.513 31.826 539.894 0 588.883h719.927" transform="translate(.58)"/>
        <path fill="#F2F5FF" d="M505.26 341.513h-21.554c-.624-4.74-.945-9.58-.945-14.491 0-7.28.706-14.39 2.056-21.274h20.443v35.765m119.078-18.57V221.611c25.58 7.647 47.246 24.355 61.285 46.399-19.101 18.028-38.374 39.341-48.293 46.404-4.282 3.05-8.611 5.883-12.992 8.53M505.26 299.216h-18.955c3.72-14.288 10.242-27.444 18.94-38.85.01.361.015.727.015 1.09v37.76" transform="translate(.58)"/>
        <path fill="#FFF" d="M624.338 432.438V322.943c4.381-2.646 8.71-5.48 12.992-8.529 9.919-7.063 29.192-28.376 48.293-46.404 10.858 17.051 17.148 37.296 17.148 59.012 0 35.496-16.805 67.061-42.89 87.177-.947-1.765-2.706-2.637-5.53-2.637-.757 0-1.592.062-2.51.189 2.063-9.69-13.343-8.03-18.746-11.194.261 1.34.86 2.771 1.65 3.952l1.738 2.077c-1.345 4.864-2.374 9.159 7.51 10.411-2.326 1.33-5.388 4.1-2.776 6.747.52.527 1.21.865 1.993 1.07-5.992 3.098-12.302 5.658-18.872 7.624" transform="translate(.58)"/>
        <path fill="#FFECF6" d="M299.262 394.11c-34.495-5.149-64.823-23.042-86.039-48.74-.117-.758-.263-1.49-.465-2.154-.24-1.005-.579-1.877-1.093-2.476-.738-.857-1.842-1.2-3.055-1.275-16.946-22.943-26.967-51.32-26.967-82.032 0-76.327 61.865-138.202 138.196-138.202 9.28 0 18.344.913 27.112 2.657l-84.75 65.573h37.06v206.65M241.27 198.197c-16.44 0-29.768 13.324-29.768 29.768 0 16.443 13.328 29.766 29.768 29.766 16.437 0 29.768-13.323 29.768-29.766 0-16.444-13.33-29.768-29.768-29.768m188.256 143.316H418.34v-35.765h31.016c-4.836 12.953-11.557 24.987-19.83 35.765m22.081-42.296H418.34v-37.76c0-20.85 14.68-38.273 34.274-42.488 3.529 12.21 5.423 25.116 5.423 38.464 0 14.563-2.254 28.602-6.43 41.784" transform="translate(.58)"/>
        <path fill="#F2FCFF" d="M624.338 207.524v-20.063h23.003c-6.589 7.796-14.347 14.576-23.003 20.063m28.269-26.868l-66.646-51.563V62.285h-51.634V89.14l-40.069-31c18.38-21.716 45.838-35.505 76.515-35.505 55.336 0 100.192 44.859 100.192 100.195 0 21.54-6.794 41.491-18.358 57.826" transform="translate(.58)"/>
        <path fill="#B0BCD8" d="M624.524 439.64c0 3.25-76.6 5.885-171.108 5.885-94.486 0-171.15-2.634-171.15-5.885 0-3.248 76.664-5.883 171.15-5.883 94.508 0 171.108 2.635 171.108 5.883" transform="translate(.58)"/>
        <path fill="#15449C" d="M262.202 187.461L461.801 33.026 661.4 187.461 262.202 187.461" transform="translate(.58)"/>
        <path fill="#15449C" d="M543.463 134.995L576.463 134.995 576.463 71.995 543.463 71.995z" transform="translate(.58)"/>
        <path fill="#C5D9FF" d="M505.26 348.032h-86.92v-74.79c0-22.42 19.456-40.6 43.458-40.6 24.003 0 43.462 18.18 43.462 40.6v74.79zM299.262 440.6h325.076V187.425H299.262v253.174z" transform="translate(.58)"/>
        <path fill="#C3D8FF" d="M458.533 369.504L465.066 369.504 465.066 202.556 458.533 202.556z" transform="translate(.58)"/>
        <path fill="#C3D8FF" d="M378.324 262.682L545.272 262.682 545.272 256.148 378.324 256.148zM378.324 305.748L545.272 305.748 545.272 299.217 378.324 299.217z" transform="translate(.58)"/>
        <path fill="#B9E3FF" d="M568.442 169.595h-43.02c.242-4.655 1.082-9.129 3.261-13.03l-.579-3.107c1.807-1.419 4.18-2.58 6.223-3.785v19.32h34.187c-.022.2-.047.4-.072.602" transform="translate(.58)"/>
        <path fill="#B9E3FF" d="M568.514 168.993h-34.187v-19.32c1.243-.736 2.361-1.486 3.154-2.324 1.454-.087 3.012-.144 4.63-.144 9.832 0 21.818 2.105 25.449 11.86 1.126 3.024 1.35 6.469.954 9.928M530.112 195.97c-4.612 0-4.155-7.44-4.326-11.446-.204-4.864-.62-9.999-.363-14.93h43.02c-.694 5.175-2.722 10.337-5.118 14.154-3.604 5.746-7.205 6.961-11.29 6.961-1.494 0-3.052-.164-4.7-.325-1.645-.162-3.38-.326-5.226-.326-.597 0-1.208.018-1.83.057-5 .318-5.015 4.909-9.13 5.744-.373.077-.716.111-1.037.111" transform="translate(.58)"/>
        <path fill="#FFF" d="M372.675 169.595h-12.672c1.81-4.993 3.44-9.536 7.608-13.607 2.85 3.822 3.921 8.728 5.064 13.607M359.519 212.231c-5.25 0-10.361-.979-13.05-4.925l-1.243-4.35c-.773-4.045-4.809-30.389.537-30.389.917 0 2.11.773 3.643 2.57 1.713 2.008 1.163 5.316 3.726 5.316.432 0 .951-.095 1.583-.303 2-.66 3.596-6.032 4.197-7.605.383-1.002.74-1.984 1.091-2.95h12.672c1.08 4.582 2.22 9.143 4.966 12.754.517.007 1.004.05 1.508.05.247 0 .5-.01.761-.04.651-1.563 4.006-9.79 5.221-10.341.495-.226.937-.33 1.33-.33 2.893 0 3.136 5.584 3.532 8.248.601 4.07 1.036 8.594 1.692 12.597.492 2.975 2.965 9.989 1.412 12.939-3.142 5.967-17.67 5.467-23.637 6.046-2.933.286-6.47.713-9.941.713" transform="translate(.58)"/>
        <path fill="#C8E0FE" d="M544.738 532.292c-7.165 0-13.61-.442-18.063-1.148 9.109-.845 14.713-1.996 14.713-3.263 0-.808-2.279-1.566-6.29-2.232 2.955-.181 6.215-.283 9.64-.283 13.428 0 24.313 1.55 24.313 3.46 0 1.913-10.885 3.466-24.313 3.466M488.808 532.588c-29.035 0-52.59-2.11-52.59-4.707 0-2.595 23.555-4.702 52.59-4.702 20.006 0 37.403.999 46.29 2.47-8.634.532-14.678 1.755-14.678 3.176 0 .892 2.368 1.705 6.255 2.319-9.563.89-22.993 1.444-37.867 1.444" transform="translate(.58)"/>
        <path fill="#BED5FE" d="M526.675 531.144c-3.887-.614-6.255-1.427-6.255-2.319 0-1.421 6.044-2.644 14.678-3.176 4.011.666 6.29 1.424 6.29 2.232 0 1.267-5.604 2.418-14.713 3.263" transform="translate(.58)"/>
        <path fill="#C8E0FE" d="M306.725 467.44c-21.122 0-38.245-2.177-38.245-4.874 0-2.684 17.123-4.87 38.245-4.87 21.104 0 38.228 2.186 38.228 4.87 0 2.697-17.124 4.874-38.228 4.874M196.485 531.947c-27.144 0-49.163-3.03-49.163-6.755 0-3.733 22.02-6.763 49.163-6.763 21.651 0 40.035 1.929 46.586 4.603l-7.404 1.347c-2.43 1.628-4.928 3.7-6.951 5.91-8.629 1.031-19.9 1.658-32.231 1.658" transform="translate(.58)"/>
        <path fill="#D7D5E9" d="M391.39 461.592c-23.54 0-42.64-2.517-42.64-5.619 0-3.104 19.1-5.627 42.64-5.627s42.626 2.523 42.626 5.627c0 3.102-19.087 5.62-42.627 5.62M587.101 460.97c-23.54 0-42.639-2.517-42.639-5.618 0-3.104 19.1-5.627 42.64-5.627s42.626 2.523 42.626 5.627c0 3.101-19.087 5.619-42.627 5.619" transform="translate(.58)"/>
        <path fill="#FFF" d="M378.526 418.578c-.639.504-1.564.392-2.066-.241-.502-.642-.395-1.564.244-2.066l5.162-4.07c.636-.502 1.566-.396 2.063.243.502.639.395 1.563-.241 2.068l-5.162 4.066" transform="translate(.58)"/>
        <path fill="#FFF" d="M377.52 414.989c-.458-.606-1.278-.659-1.818-.122l-4.791 4.794c-.537.54-.98 1.603-.98 2.361v18.354c0 .763.622 1.386 1.388 1.386h14.021c.758 0 1.384-.623 1.384-1.386v-11.944c0-.763-.377-1.88-.842-2.486l-8.363-10.957" transform="translate(.58)"/>
        <path fill="#FFBEC1" d="M377.999 421.955c-.269-.35-.746-.383-1.056-.07l-2.784 2.784c-.31.31-.569.93-.569 1.372v10.65c0 .441.365.802.805.802h8.14c.44 0 .805-.36.805-.803v-6.931c0-.443-.222-1.094-.488-1.444l-4.853-6.36" transform="translate(.58)"/>
        <path fill="#FA7071" d="M383.454 415.538c.268.323.216.803-.104 1.066L381 418.518c-.323.263-.8.214-1.066-.11l-2.744-3.36c-.266-.325-.216-.802.107-1.068l2.351-1.914c.323-.263.798-.216 1.064.11l2.74 3.362" transform="translate(.58)"/>
        <path fill="#0B1238" d="M561.228 458.008L557.999 457.857 567.913 245.817 571.139 245.968 561.228 458.008M613.713 456.107L603.889 245.968 607.117 245.817 616.941 455.958 613.713 456.107" transform="translate(.58)"/>
        <path fill="#0B1238" d="M565.321 367.476L609.985 367.476 609.985 364.243 565.321 364.243zM565.321 333.826L609.985 333.826 609.985 330.596 565.321 330.596zM565.321 300.171L609.985 300.171 609.985 296.94 565.321 296.94zM567.416 266.519L606.702 266.519 606.702 263.288 567.416 263.288zM562.475 401.129L612.801 401.129 612.801 397.896 562.475 397.896zM559.369 434.784L614.044 434.784 614.044 431.551 559.369 431.551z" transform="translate(.58)"/>
        <path fill="#FFF" d="M534.884 153.197c-.494.542-.972 1.176-1.444 1.914-1.16 1.829-3.48 4.165-3.598 6.427-.097 1.809 1.381 4.075 2.023 5.72.703 1.81 1.672 6.932 3.59 7.583 2.272.77 5.212-2.759 6.927-3.733 2.595-1.474 6.196-1.717 9.113-1.285 2.528.376 6.213 2.138 8.507-.005 1.805-1.685 1.28-6.325.813-8.693-.313-1.59-.505-4.632-1.568-5.927-1.347-1.638-4.434-1.59-6.226-2.53-2.497-1.312-3.464-1.906-6.471-2.192-4.976-.47-8.6-.634-11.666 2.721" transform="translate(.58)"/>
        <path fill="#F5BFA6" d="M610.776 208.248c6.436-1.76 11.61 22.973 13.26 27.136 3.386 9.227 8.729 21.678 10.471 30.267-3.482.97-3.047.997-6.347 2.277-4.461-10.371-6.425-16.467-10.945-23.314-3.547-5.37-5.256-11.002-10.207-14.678l3.768-21.688" transform="translate(.58)"/>
        <path fill="#DFE9FF" d="M605.9 205.014s7.622-.825 11.454 8.005c3.835 8.833 6.484 15.888 6.484 15.888s-5.716 3.79-8.952 12.57l-7.446-9.784s.614-24.89-1.717-27.136l.177.457" transform="translate(.58)"/>
        <path fill="#F5BFA6" d="M604.448 191.047c-7.257 4.272-1.396 16.283 1.531 22.151-5.572-.895-11.63-2.085-17.29-1.444-.171-6.914 1.233-16.333-.775-21.418l16.534.711" transform="translate(.58)"/>
        <path fill="#FFF" d="M583.657 204.863c-3.012 2-5.353 5.56-5.843 8.656-1.079 6.797 1.623 12.774 2.294 19.347.238 2.359.738 4.489 1.287 6.87 1.225 5.278 2.098 10.512 1.17 15.823-2.24 12.841 9.865 19.539 21.205 10.927 5.46-4.142 2.967-9.56 4.674-15.582 1.79-6.302 4.717-12.217 6.442-18.54 1.685-6.168 1.489-11.571.805-17.811-.365-3.318-1.64-5.682-3.467-8.279-2.597-3.68-6.088-3.755-9.776-3.161-1.921.31-1.412.803-3.346 1.056-2.003.266-6.449.279-8.253-.432-2.453-.964-5.003-.33-7.192 1.126" transform="translate(.58)"/>
        <path fill="#3D4166" d="M606.899 202.698s4.448 33.57-20.814 55.132l3.695.676s21.416-18.651 18.983-55.343l-1.864-.465" transform="translate(.58)"/>
        <path fill="#3D4166" d="M586.552 203.473s16.465 29.202 15.687 52.812l2.587.673s-1.188-28.165-16.775-54.364l-1.499.88" transform="translate(.58)"/>
        <path fill="#F5BFA6" d="M595.966 194.832c-4.76 6.288-14.504-1.277-14.28-6.546.452-10.152 7.664-14.693 7.664-14.693 5.23-5.73 7.655-6.016 12.732-3.983 0 0 7.965 6.638-6.116 25.222" transform="translate(.58)"/>
        <path fill="#F5B29C" d="M581.465 317.275c2.048 4.595 3.949 9.217 5.641 13.865-4.642 1.014-11.986.688-16.24-1.457 1.03-3.675 5.586-4.058 8.678-3.71-1.392-2.739-3.12-5.495-5.023-8.211l6.944-.487M608.949 307.662c-1.282 21.373-1.64 43.31-5.405 63.878-4.519-1.486-10.684-5.483-13.272-9.494 2.762-2.642 6.877-.653 9.365 1.203.579-9.449-.323-20.782-2.046-30.091-1.202-6.529.82-23.391-1.267-30.04l12.625 4.544" transform="translate(.58)"/>
        <path fill="#2E3054" d="M577.493 325.886l.425.087s-.189-.077-.425-.087M586.358 327.489s-9.667 1.583-9.869-.211c-.116-1.059.336-1.285.704-1.303-2.682.063-5.557.875-6.348 3.679 5.518 3.603 16.261 1.486 16.261 1.486s-.047-.868-.23-1.322l-.518-2.329M598.059 362.143L598.387 362.439 598.059 362.143M604.615 367.876s-8.696-3.3-7.938-4.985c.445-.999.964-.97 1.297-.785-2.41-1.34-5.405-2.12-7.557-.047 2.57 4.003 9.424 8.584 13.934 10.062.09-.49.264-.798.532-1.854l-.268-2.39" transform="translate(.58)"/>
        <path fill="#3D4166" d="M582.046 217.142s-.31 32.93 4.35 39.453l-2.796-1.242s-9.01-28.27-5.282-40.696l3.728 2.485" transform="translate(.58)"/>
        <path fill="#3D4166" d="M583.528 254.06s-29.719 27.184-30.912 32.766c-1.183 5.576 24.413 37.676 24.413 37.676l9.014-2.125-15.389-30.509 20.704-9.953s5.388 73.098 5.247 76.125c-.144 3.02 11.534 2.597 11.956.532.425-2.068 10.759-71.272-.887-102.524 0 0-18.955.818-24.146-1.988" transform="translate(.58)"/>
        <path fill="#2E3054" d="M608.927 177.652c1.312 5.897-1.44 15.662-6.735 19.02-9.146 5.815-12.986-6.206-12.039-13.133 5.49-1.473-.09-3.593-2.507-3.67-3.224-.107-5.465-.152-5.838-4.101-.207-2.14 3.29-6.375 5.564-3.882-2.289-2.507 1.297-5.398 3.743-5.805 2.567-.423 9.143 1.64 11.613 2.684 3.5 1.476 5.42 5.4 6.199 8.887" transform="translate(.58)"/>
        <path fill="#F5BFA6" d="M545.081 171.476c-1.039 4.553 6.148 21.627 11.502 27.09 3.636 3.722 30.454 27.332 30.744 12.209.157-8.581-13.668-11.422-18.95-16.465-3.521-3.372-8.119-9.92-11.456-13.4-3.368-3.507-3.13-7.148-5.463-11.315-1.377.569-6.377 1.881-6.377 1.881" transform="translate(.58)"/>
        <path fill="#DFE9FF" d="M585.983 204.2l-14.911-9.32s-8.488 8.076-4.968 14.91c0 0 16.355 11.597 20.913 6.005s-1.034-11.596-1.034-11.596" transform="translate(.58)"/>
        <path fill="#C8E0FE" d="M236.492 545.665c-.658 0-1.352-.047-2.082-.147-13.294-1.834-11.326-9.076-5.694-15.23 10.363-1.237 16.917-3.063 16.917-5.096 0-.756-.9-1.482-2.562-2.16l13.1-2.38c2.435-1.122 8.17-1.98 14.113-1.98 8.122 0 16.621 1.601 17.588 6.313 2.319 11.316-21.363 10.1-26.033 12.924 5.52 1.369 1.96 3.268-1.32 3.867-.49.09-.976.126-1.463.126-1.23 0-2.453-.24-3.676-.482-1.223-.24-2.448-.482-3.686-.482-.586 0-1.173.055-1.767.186-4.267.957-7.592 4.541-13.435 4.541" transform="translate(.58)"/>
        <path fill="#BED5FE" d="M228.716 530.289c2.023-2.21 4.52-4.282 6.951-5.91l7.404-1.347c1.662.678 2.562 1.404 2.562 2.16 0 2.033-6.554 3.86-16.917 5.097" transform="translate(.58)"/>
        <path fill="#FA7071" d="M554.346 175.045s-5.975 3.991-10.108 3.991c-.417-4.824-2.515-9.029-3.675-13.616-.398-1.569-1.166-3.023-1.695-4.496-.85-2.341-2.813-5.08-2.652-7.704 1.941.31 3.457 5.137 4.78 6.548.215-2.073-1.934-11.606-.567-11.683 1.369-.077 2.03 6.467 3.464 9.009.005-1.69.313-3.236.547-4.829.186-1.252.144-4.734 1.208-4.54 1.058.194.524 3.76.658 5.127.1 1.034-.134 3.19.669 3.862.46-2.152 1.839-7.955 2.81-7.846.972.11.147 4.441-.273 6.566-.39 1.968-.666 4.105-.544 6.208.877-.28 2.117-2.913 2.64-3.723.449-.191.936-.445 1.456-.355.2 2.403-1.474 4.351-1.844 6.65-.204 1.263-.247 2.418.141 3.663.204.654 3.164 7.046 2.985 7.168M624.917 264.466s1.053-1.009 4.038-3.315c2.985-2.304 4.66-2.486 4.66-2.486s.517 5.18 3.417 8.492c2.9 3.313 5.592 13.876 5.177 15.327-.415 1.449-1.966-2.073-5.073-6.628 0 0 4.248 7.04 2.796 8.077-1.451 1.036-5.798-6.835-7.455-10.147 0 0 .514 4.244-.726 5.28 0 0-2.172-.83-2.38-5.179-.21-4.349-4.454-9.421-4.454-9.421" transform="translate(.58)"/>
        <path fill="#FA7071" d="M639.828 275.96s2.793 5.592 3.52 5.383c.725-.206-.31-7.557-4.969-10.975-4.66-3.417 1.449 5.592 1.449 5.592" transform="translate(.58)"/>
        <path fill="#FFF" d="M411.132 421.69c0 .469-.45.852-1.002.852h-4.724c-.552 0-1.002-.383-1.002-.853v-1.715c0-.474.45-.857 1.002-.857h4.724c.552 0 1.002.383 1.002.857v1.715" transform="translate(.58)"/>
        <path fill="#FFBEC1" d="M404.693 421.69s-4.041 23.629-4.33 24.909c-.285 1.257.488 3.071 7.223 3.139h.365c6.732-.068 7.51-1.882 7.222-3.14-.288-1.28-4.041-24.909-4.041-24.909h-6.44" transform="translate(.58)"/>
        <path fill="#FFD7DF" d="M411.132 421.69h-2.535l-.144 28.035c6.27-.149 6.998-1.906 6.72-3.126-.288-1.28-4.041-24.91-4.041-24.91" transform="translate(.58)"/>
        <path fill="#FFBEC1" d="M409.604 421.69h-3.388l-2.788 27.675c1.034.218 2.388.355 4.158.373h.365c1.77-.018 3.124-.155 4.16-.373l-2.507-27.676" transform="translate(.58)"/>
        <path fill="#3D4166" d="M410.916 419.475l.204-1.7c1.361 1.431 3.608 1.996 5.753 1.265.38-.13.74-.296 1.073-.49.398-.156.766-.355 1.106-.581-2.36.358-4.65-.49-5.952-2.162l3.134-2.545-1.011-2.085-9.31 2.984-.14.025-1.065 5.329 6.208-.04" transform="translate(.58)"/>
        <path fill="#FA7071" d="M363.82 416.766l3.873 25.767c.34 1.841 1.274 3.21 2.087 3.064l1.67-.303c.818-.15 1.198-1.765.86-3.606l-5.507-25.464-2.982.542" transform="translate(.58)"/>
        <path fill="#3D4166" d="M351.32 402.826c4.886.356 6.447 6.705 7.11 9.63.671 2.92 2.207 5.938 6.81 5.098l.514-.095c4.598-.842 4.97-4.212 4.56-7.18-.415-2.967-1.207-9.463 3.234-11.526l.129-.186c-.189-1.037-1.866-1.693-4.342-1.892-.842 1.089-1.903 2.863-1.91 4.909 0 0-.816-2.595-.642-4.956-1.538.047-3.233.229-5.008.552-2.015.37-3.867.88-5.45 1.456.75.83 1.695 2.187 1.889 3.93 0 0-1.698-2.096-3.73-3.16-2.23 1.064-3.54 2.257-3.35 3.289l.186.131" transform="translate(.58)"/>
        <path fill="#FFF" d="M358.36 412.146l.07.31.157.257c.077-.04 6.663-3.962 11.792-1.775l-.065-.658c-5.124-1.986-11.213 1.429-11.953 1.866" transform="translate(.58)"/>
        <path fill="#3D4166" d="M403.562 442.988v-22.852c0-1.705-1.384-3.087-3.09-3.087-1.22 0-2.114-.897-2.114-2v-2.99c0-1.106-.895-2-2-2h-4.6c-1.107 0-2.002.894-2.002 2v2.99c0 1.103-.894 2-2 2-1.82 0-3.204 1.382-3.204 3.087v22.852h19.01" transform="translate(.58)"/>
        <path fill="#FFBEC1" d="M398.358 413.01v-.951c0-.728-.41-1.34-.994-1.69h-6.613c-.584.35-.995.962-.995 1.69v.952h8.602" transform="translate(.58)"/>
        <path fill="#DFE9FF" d="M397.94 411.199v-3.688c0-.86-.693-1.553-1.553-1.553h-4.66c-.86 0-1.553.693-1.553 1.553v3.688h7.766M388.621 437.707L399.494 437.707 399.494 419.378 388.621 419.378z" transform="translate(.58)"/>
        <path fill="#FF4E50" d="M422.735 428.156s-9.08 30.064-7.945 28.632h-34.06 20.436-34.06c1.138 1.432-7.948-28.632-7.948-28.632h63.577" transform="translate(.58)"/>
        <path fill="#FFD7DF" d="M359.57 429.525c.195.644.448 1.491.746 2.485h61.266c.296-.994.55-1.841.74-2.485h-62.751" transform="translate(.58)"/>
        <path fill="#FFBEC1" d="M389.369 428.071s-6.815 1.683-6.246 13.468l-15.893 2.244s-9.083-13.468-1.138-16.276c0 0 18.736-1.68 23.277.564" transform="translate(.58)"/>
        <path fill="#DFE9FF" d="M383.57 427.035s-6.814 1.682-6.245 13.467l-15.895 2.245s-9.081-13.468-1.136-16.276c0 0 18.736-1.68 23.277.564" transform="translate(.58)"/>
        <path fill="#B6D2F6" d="M217.614 353.795c4.558 1.123 8.656 9.862 9.976 12.978 1.762 4.16 7.118 25.009-2.073 25.267-5.55.16-10.154-10.487-11.911-14.223-2.57-5.467-4.996-16.534-.863-21.81 1.616-2.058 3.27-2.607 4.871-2.212" transform="translate(.58)"/>
        <path fill="#FFF" d="M267.84 514.192s14.48 3.561 14.78 6.586c.296 3.027-38.545 18.644-38.545 18.644s-10.983-3.755-13.637-8.067c-2.652-4.317 30.176-15.548 37.403-17.163" transform="translate(.58)"/>
        <path fill="#FF4E50" d="M265.415 515.44s11.437 2.828 11.666 5.266c.229 2.435-30.534 15.137-30.534 15.137s-8.673-2.992-10.76-6.461c-2.083-3.47 23.907-12.618 29.628-13.942" transform="translate(.58)"/>
        <path fill="#5C75C3" d="M221.305 518.218c.246 4.006 6.844 5.676 8.887 8.785-2.122.838-9.558.463-11.626-.91-2.853-1.895-.723-6.67-4.028-9.41l6.767 1.535M180.428 516.978c-.216 3.1.892 6.141.71 9.342-4.9.651-9.02 1.58-14.06 1.322 1.175-2.92 3.764-3.47 6.456-5.221 4.346-2.811 2.274-4.767 3.835-8.796l3.059 3.353" transform="translate(.58)"/>
        <path fill="#3D4166" d="M213.35 407.914l9.27 110.87-9.114.83-16.154-79.942L182.78 521l-7.791-.534s-.6-50.513-.301-66.202c.3-15.687-.594-37.49 6.285-46.794 0 0 22.815 5.669 32.378.445" transform="translate(.58)"/>
        <path fill="#ECB49F" d="M190.438 353.914c.597-.146 1.315-.303 2.16-.536 3.546-.977 5.291-2.573 6.926-5.602.448-.835 2.2-7.264 2.918-7.389 2.724-.47 7.18-1.441 9.183.669 2.083 2.18 1.603 7.903 2.642 10.671.566 1.514 2.072 2.573 2.684 3.937 2.425 5.383-3.55 14.233-5.363 19.25-1.186 3.274-2.128 9.203-5.87 10.965-8.204 3.85-13.528-14.546-14.798-18.686-.892-2.89-2.316-5.728-2.718-8.72-.468-3.542.161-4.03 2.236-4.559" transform="translate(.58)"/>
        <path fill="#ECB49F" d="M205.506 339.893c.053-.075.102-.147.154-.219.786-.127 1.61-.224 2.406-.224.184 0 .365.005.544.015l.269.366c-.415-.058-.848-.08-1.288-.08-.688 0-1.394.057-2.085.142" transform="translate(.58)"/>
        <path fill="#E29E92" d="M212.758 343.216c-.263-.87-.619-1.623-1.133-2.16-.683-.72-1.655-1.081-2.746-1.225l-.269-.366c1.213.075 2.317.418 3.055 1.275.514.6.852 1.471 1.093 2.476" transform="translate(.58)"/>
        <path fill="#DA7F63" d="M213.28 352.22c-3.653-.003-7.485-3.626-9.479-7.014-.32-.534-.584-1.056-.802-1.563.656-.974 1.635-2.5 2.507-3.75.691-.085 1.397-.142 2.085-.142.44 0 .873.022 1.288.08 1.09.144 2.063.504 2.746 1.225.514.537.87 1.29 1.133 2.16.627 2.607.587 6.11 1.255 8.094.082.243.194.472.301.808-.343.067-.688.102-1.034.102" transform="translate(.58)"/>
        <path fill="#ECB49F" d="M204.224 345.137c-.56-.58-1.034-1.168-1.404-1.733-2.746-4.197.286-13.492 2.739-17.545 2.736-4.533 6.677-5.89 10.97-4.904 10.378 2.389 7.435 22.014.474 27.743-3.596 2.962-9.543-.184-12.78-3.561" transform="translate(.58)"/>
        <path fill="#FFF" d="M212.018 344.095s3.094 2.868 7.413.815c0 0-3.941 7.533-7.413-.815" transform="translate(.58)"/>
        <path fill="#2E3054" d="M201.073 340.626c-1.01-5.622-2.684-9.36-2.033-14.387.728-5.552 6.83-9.648 12.182-9.424 4.451.191 9.708 3.07 12.605 6.551 1.564 1.871 2.68 4.125 2.282 6.678-.572 3.633-1.693 4.135-3.718 4.3-.514.039-2.945-.654-3.335-.873.631 5.77-6.536.775-8.507.524-4.247-.537-5.56 4.026-8.122 6.303l-1.354.328" transform="translate(.58)"/>
        <path fill="#DFE9FF" d="M215.524 418.506c-3.024-.09 16.686-60.677-.31-65.215 0 0 2.582 5.159-8.336 5.611-10.883.453-11.072-6.772-11.074-6.827-.035-1.406-11.9 2.473-12.72 3.13-7.915 6.34-.166 21.807-1.975 31.398-1.87 9.871-5.721 20.89-5.632 30.993 0 0 7.178-1.98 19.25-.666 12.07 1.32 20.792 1.576 20.797 1.576" transform="translate(.58)"/>
        <path fill="#3D4166" d="M190.138 352.157s3.673 8.649 2.61 15.615l2.315.562s1.357-11.137-2.41-16.102l-2.515-.075" transform="translate(.58)"/>
        <path fill="#3D4166" d="M192.842 366.98s-.204 37.544-15.372 51.163l31.307 2.35s7.349-37.347 7.761-50.964l-23.696-2.55" transform="translate(.58)"/>
        <path fill="#FA7071" d="M253.685 524.17c-.507 0-.984-.313-1.168-.815l-59.574-162.88c-.236-.643.097-1.359.739-1.595.648-.234 1.359.097 1.595.74l59.576 162.88c.234.646-.097 1.36-.74 1.596l-.428.074" transform="translate(.58)"/>
        <path fill="#F5B29C" d="M189.703 393.397c5.492-2.313 24.79 1.226 19.158-10.383-2.512-5.184-6.973.785-10.77 2.157-4.183 1.514-8.838 1.114-8.913 6.832l.525 1.394" transform="translate(.58)"/>
        <path fill="#B6D2F6" d="M186.22 377.673c-.881 4.459-6.677 14.365-6.677 14.365s9.111-4.556 16.152-6.626l3.727 8.699s-24.571 14.061-27.75 11.183c-4.915-4.446-.934-25.446-.226-31.567.858-7.409 3.763-17.596 12.364-19.067 3.987 6.541 3.982 15.05 2.41 23.013" transform="translate(.58)"/>
        <path fill="#F5B29C" d="M224.265 405.488c-3.795 4.488-5.406 23.443-15.573 15.006-4.535-3.76 2.66-6.28 5.058-9.447 2.634-3.481 3.482-7.932 9.255-6.429l1.26.87" transform="translate(.58)"/>
        <path fill="#B6D2F6" d="M214.175 410.27l5.954 2.296c7.29-7.098 8.845-16.405 10.359-25.911.407-2.518-4.966-3.716-6.213-3.315-2.719.877-3.107-.413-3.934 6.628-.279 2.358-4.002 16.8-6.166 20.302" transform="translate(.58)"/>
        <path fill="#3D4166" d="M217.614 353.795s1.69 8.835-1.416 16.706l-2.07-.83s3.312-11.596 1.707-16.172l1.78.296" transform="translate(.58)"/>
        <path fill="#15449C" d="M388.278 202.156L348.144 201.587 348.211 196.808 388.345 197.377 388.278 202.156" transform="translate(.58)"/>
        <path fill="#15449C" d="M382.497 205.081c-1.986 1.186-4.46.671-7.24.542-3.628-.169-7.405-.027-11.049-.027h-12.791c-3.984 0-3.91-2.647-1.996-4.73 1.949-2.115 4.148-2.661 6.994-2.671 4.267-.013 8.534 0 12.799 0 4.016 0 8.032-.713 12.048-.482 3.85.22 5.038 2.366 3.082 5.48-.552.882-1.173 1.483-1.847 1.888" transform="translate(.58)"/>
        <path fill="#3D4166" d="M349.451 339.483l-.16-.01c-.697-.087-1.194-.723-1.108-1.422l17.203-137.612c.087-.7.73-1.186 1.424-1.106.699.087 1.193.723 1.106 1.422l-17.203 137.612c-.08.644-.628 1.116-1.262 1.116M321.736 312.831s6.69 13.696 5.733 19.75l-14.653 26.12-3.183-2.865s10.192-23.255 9.553-40.458l2.55-2.547" transform="translate(.58)"/>
        <path fill="#F5B29C" d="M320.143 310.284s10.512 2.547 20.386-5.418l10.513-23.573 6.051 2.23s-5.73 19.114-8.601 24.529c-2.866 5.415-25.004 16.564-25.004 16.564s-6.529-11.785-3.345-14.332M296.667 307.781c-5.495-2.264-14.466 24.326-16.022 27.984-3.189 7.508-10.244 12.764-12.725 20.155 2.97 1.238 1.67.972 4.442 2.463 6.37-7.965 10.413-12.777 14.97-18.475 3.823-4.78 6.055-10.195 9.149-14.902l.186-17.225M305.693 294.319c3.706 4.811-1.722 14.441-4.41 19.136 3.51.042 7.355-.092 10.663 1.3 1.196-6.022 1.83-14.46 3.842-18.602l-10.095-1.834" transform="translate(.58)"/>
        <path fill="#FA7071" d="M277.14 353.604c-4.142 5.733-3.943 6.608-4.117 8.725-.157 1.981.226 4.23-.833 5.873-1.031-.99-1.471-2.552-1.884-3.822-1.702.042-1.787 1.747-2.266 3.069-.298.838-.81 3.964-1.643 4.113-.828.15.025-4.108-.11-6.126-1.095 1.265-3.213 5.296-3.762 4.695-.554-.604 2.172-4.894 2.498-6.95-1.964 1.828-4.757 5.135-5.448 4.78-.688-.36 4.014-5.04 3.589-5.403-.423-.358-4.469 3.276-4.824 2.23-.353-1.044 4.533-3.738 6.218-5.409 1.851-1.844 4.3-6.73 6.21-10.552l6.373 4.777M348.81 284.81c2.674-4.913 4.722-9.374 7.26-12.563 2.539-3.183 3.685-2.5 4.333-2.567 2.302-.241 3.512 2.269 3.997 4.175.89 3.494 1.024 3.775-1.82 5.686-4.41 2.968-4.84 4.588-6.533 9.362l-7.237-4.093" transform="translate(.58)"/>
        <path fill="#2E3054" d="M317.928 463.011c2.486.147 15.995-1.752 11.432-5.182-2.992-2.256-9.849-1.886-12.973-.176l1.541 5.358" transform="translate(.58)"/>
        <path fill="#F5B29C" d="M316.236 442.185c-.925-.07-2.053.258-3.405 1.126-4.896 3.141-1.623 11.131.1 15.135 1.806 4.2 11.13 6.384 11.802-.065.124-1.277-5.373-.902-5.995-.885 1.576-.047 3.057-14.886-2.502-15.311M282.509 461.167c4.212-.524 11.939-.293 14.506-4.195-3.166-1.243-5.077-1.593-8.273-.835.375-.09-.172-8.601-.144-9.422.116-3.556.338-7.107.693-10.651.755-7.498-13.018 1.553-6.782 25.103" transform="translate(.58)"/>
        <path fill="#DFE9FF" d="M295.457 307.098s-5.893.636-12.265 17.518c0 0 2.232 7.008 7.327 7.008 0 0 9.135-20.01 6.528-23.731l-1.59-.795" transform="translate(.58)"/>
        <path fill="#FFF" d="M324.283 332.581c-2.547 5.734-8.42 16.646-8.92 21.343-.47 4.427-3.362 10.615-.951 9.556 3.837-1.685-6.328 3.733-10.18 3.643-4.836-.109-9.985-2.122-13.211-5.813-4.004-4.59-2.095-6.431-1.014-15.11 2.845-9.272-.659-19.295 1.764-28.587.955-3.629 1.534-8.107 5.276-9.72 7.6-3.273 6.85 1.752 19.591 1.434 2.76-.07 2.868.636 5.736 2.547 2.866 1.911 4.459 14.974 1.909 20.707" transform="translate(.58)"/>
        <path fill="#3D4166" d="M315.364 353.924c.887-.51 5.097 100.021 5.097 100.021l-9.71.639-12.27-75.179-9.235 73.904-9.692.967s3.345-48.042 1.899-66.393c-1.447-18.351.862-27.85 8.111-36.19 0 0 19.112 6.054 25.8 2.231" transform="translate(.58)"/>
        <path fill="#F5B29C" d="M307.977 299.473c2.558 6.531 12.737 2.418 13.81-2.155 2.066-8.797-3.006-14.434-3.006-14.434-3.087-6.176-5.097-7.008-9.936-6.496 0 0-8.423 3.757-.868 23.085" transform="translate(.58)"/>
        <path fill="#2E3054" d="M281.927 458.262c.045.206 5.346.134 5.796.09.852-.09 3.76-1.708 1.613-2.2 2.132-1.414 8.131-.167 9.963 1.506 1.394 1.275-16.663 3.539-16.663 3.539-.256-.964-.49-1.944-.709-2.935M316.015 281.636c-1.526 4.973.002 20.996-8.348 19.7-6.345-.986-7.801-16.523-5.903-21.529 1.578-4.143 14.047-7.87 17.134-4.244 3.926 4.6-2.245 3.996-2.883 6.073M325.628 457.735c-3.326 3.248-8.18 1.983-12.017 1.153-2.435 6.099 6.852 3.989 9.82 2.356l2.197-3.509" transform="translate(.58)"/>
        <path fill="#DFE9FF" d="M320.143 310.284c-5.575 7.962 3.663 15.925 3.663 15.925l15.132-6.37c-.638-7.326-5.574-12.582-5.574-12.582l-10.512 2.229-2.71.798" transform="translate(.58)"/>
        <path fill="#2E3054" d="M313.773 285.118c-.427 3.224 1.523 10.438 5.94 9.541-4.663 5.768-15.7 10.744-22.106 3.758-3.065-3.34-2.175-9.225-.788-13.05 1.92-5.284 4.192-6.817 9.31-8.532l7.644 8.283" transform="translate(.58)"/>
        <path fill="#3D4166" d="M316.638 309.327s-9.555 31.535-27.712 45.552l4.779.636s21.98-25.166 25.48-46.506l-2.547.318" transform="translate(.58)"/>
        <path fill="#3D4166" d="M302.622 306.459s-7.006 37.271 8.283 50.649l-3.186.318s-13.06-14.653-7.963-50.967h2.866" transform="translate(.58)"/>
        <path fill="#D88A4F" d="M522.68 375.004c-3.194-3.072-9.472 11.226-10.588 16.86-1.285 6.481-.15 10.845 1.417 16.77 1.9 7.215 7.704 15.188-1.298 17.566-6.016 1.593-13.134-1.536-19.124-2.147-4.933-.502-9.66.43-10.845-4.18-2.657-10.284 12.364-20.367 3.84-28.56-7.352-7.688-4.683-21.386-3.373-28.3 5.08-6.708 10.003-3.402 11.378-12.804 2.266-.641 4.818-.912 7.055-1.263.199 3.768 1.327 6.716 4.598 8.908 2.048 1.374 4.394 1.215 6.653 1.056 2.13-.15 4.187-.298 5.85.835 3.422 2.33 5.152 11.521 4.436 15.26" transform="translate(.58)"/>
        <path fill="#D88A4F" d="M480.318 361.877c4.67-1.3 7.488 4.757 8.694 11.514 1.334 7.458-2.587 10.818-2.587 10.818-1.28 4.133-2.727 9.613-4.01 13.741-.658 2.123-4.194.358-4.955-.29-2.122-1.807-12.391-10.933-14.702-12.499-2.747-1.869-8.348-1.65-10.098-4.781-1.2-2.15.32-5.436 2.796-6.017 2.368-.554 5.12 1.956 6.909 3.154 2.167 1.451 4.113 2.304 6.044 4.098.636.586 8.634 7.463 8.855 6.22 0 0-3.218-24.21 3.054-25.958" transform="translate(.58)"/>
        <path fill="#DFE9FF" d="M481.081 361.445s-3.72-.425-4.866 6.874c-1.145 7.301-.286 11.593-.286 11.593l5.724.86s3.007-18.467-.572-19.327" transform="translate(.58)"/>
        <path fill="#FFF" d="M522.68 375.004c-2.486-.03-9.472 11.226-10.586 16.86-1.287 6.481 1.929 11.467 3.495 17.387.579 2.197 1.797 5.122-.87 6.225-1.43.59-3.425.624-5.005.798-3.472.39-7.058.176-10.525.01-3.726-.184-7.19-.505-10.774-1.268-.825-.176-5.5.087-5.346-.989.455-3.186-.111-6.15 1.581-8.524 1.68-2.366 3.114-5.162 3.04-8.137-.065-2.622-3.251-6.106-6.53-12.89-3.265-6.778 1.164-19.393.182-21.292-1.948-3.402 4.69-3.598 6.777-4.791-2.224 7.304-2.644 8.944 4.852 9.809 7.493.865 13.209-12.19 21.74-10.227 6.629 1.524 9.091 11.15 7.968 17.03" transform="translate(.58)"/>
        <path fill="#0B1238" d="M500.17 320.838c-.422-1.145 7.444-12.597 14.696-3.434 6.223 8.318-6.487 30.538 9.354 33.976 0 0-14.894 7.632-18.709-6.492-3.815-14.123-3.434-21.567-5.34-24.05" transform="translate(.58)"/>
        <path fill="#FFF" d="M497.688 318.167s4.197-3.626 6.489-1.146c2.29 2.483 2.29 5.343 2.29 5.343s-6.3-4.771-8.78-4.197" transform="translate(.58)"/>
        <g transform="translate(.58) translate(491.97 348.715)">
            <mask id="prefix__b" fill="#fff">
                <use xlink:href="#prefix__a"/>
            </mask>
            <path fill="#80949F" d="M0.208 6.613L9.249 6.613 9.249 0.231 0.208 0.231z" mask="url(#prefix__b)"/>
        </g>
        <path fill="#C86131" d="M493.56 355.465c-.396 0-.788-.045-1.18-.136.755-1.109 1.336-2.657 1.692-5.018l.015-.102c2.266-.641 4.818-.912 7.055-1.263.015.284.035.562.062.836-1.993 3.38-4.814 5.683-7.644 5.683" transform="translate(.58)"/>
        <path fill="#D88A4F" d="M487.009 324.815c-2.086 6.573-.865 16.783 2.343 22.618 4.58 8.323 11.492 4.416 14.767-2.746 2.704-5.908 4.678-17.931-.961-22.797-2.339-2.016-7.575-2.948-10.63-1.934-5.442 1.802-4.948 5.47-4.973 10.379l-.546-5.52" transform="translate(.58)"/>
        <path fill="#2E3054" d="M502.61 319.091c4.76 2.411 7.986 7.926 8.2 13.008.191 4.486-1.757 10.264-6.22 12.195-.47-1.687-.856-2.935.198-4.52.98-1.48 2.065-2.033.885-4.014-1.519-.17-2.307 1.75-2.843 2.848h.027c-1.899-2.388-3.082-6.106-1.911-9.079-2.04 5.194-7.523 2.095-11.224 4.275-2.972 1.75-2.577 3.917-2.758 7.053-5.443-2.095-3.32-11.66-1.792-15.607 1.208-3.142 2.741-5.165 6.002-6.328 3.546-1.27 7.99-1.578 11.437.17" transform="translate(.58)"/>
        <path fill="#FA7071" d="M456.03 374.76s6.584 0 10.165 2.864l-2.436 9.732s0-3.005-4.436-3.72c-4.439-.716-3.293-8.875-3.293-8.875" transform="translate(.58)"/>
        <path fill="#F5B29C" d="M483.698 514.371l-5.758-1.203c-.216 1.34-.455 2.667-.733 3.952-1.673 7.962-11.09 10.17-11.005 12.826.082 2.657 16.157-3.83 16.157-3.83s.961-10.756 1.34-11.745M507.45 515.527l-4.824-2.222c-.418 1.394-.46 4.396-.696 5.785-1.519 8.873-9.153 8.743-9.387 11.114-.28 2.836 15.125-2.51 15.125-2.51s-.755-11.168-.218-12.167" transform="translate(.58)"/>
        <path fill="#3D4166" d="M480.492 417.283l-4.87 100.925 8.69-.27 11.077-80.368 5.413 82.201 6.446.46s19.887-79.261 6.527-116.408c0 0-14.042 4.861-28.633 2.025 0 0-4.145 3.907-4.65 11.435" transform="translate(.58)"/>
        <path fill="#FFBEC1" d="M515.057 407.16c-2.91 0-5.403-1.026-6.877 1.917-.773 1.548-1.188 5.837-.566 7.627 1.265 3.643 10.587 3 13.713 2.264.455-2.172.835-3.877.597-6.268-.356-3.524-1.032-2.823-4.007-3.825l-2.86-1.714" transform="translate(.58)"/>
        <path fill="#D88A4F" d="M526.332 375.939c2.284 4.52 8.833 11.074 7.849 16.042-.82 4.153-3.564 7.739-6.365 10.786-2.386 2.592-6.124 7.311-9.67 8.042-1.086.224-.897.437-1.558-.408-1.69-2.16 1.615-4.553 2.77-6.021 2.896-3.681 6.808-11.062 6.808-11.062s-1.526-4.223-4.34-8.358c-3.742-5.482-8.298-10.582-8.516-17.496-.075-2.314.686-8.303 4.602-7.324 3.07.768 6.892 12.781 8.42 15.799" transform="translate(.58)"/>
        <path fill="#DFE9FF" d="M527.44 376.791c-.024.196-.089.413-.19.656-.403.962-1.964 1.911-2.789 2.47-1.436.975-4.314 2.752-6.061 1.531-3.418-2.388-5.54-10.065-5.664-13.937-.08-2.507.745-8.996 4.985-7.933 4.444 1.106 6.327 11.231 8.445 14.604.73 1.163 1.402 1.665 1.275 2.609" transform="translate(.58)"/>
        <path fill="#2E3054" d="M482.66 522.94l-.39.186c-9.273 5.145-10.041 2.585-9.999 1.437-2.977 2.448-6.121 3.842-6.069 5.383.082 2.657 16.157-3.83 16.157-3.83s.124-1.374.3-3.176M507.373 524.461c-4.081 2.289-3.607 2.356-7.173 2.915-3.561.562-1.97-1.123-2.018-1.324-2.786 1.859-5.475 2.5-5.639 4.152-.28 2.836 15.125-2.51 15.125-2.51s-.037-.944-.295-3.233" transform="translate(.58)"/>
        <path fill="#FFF" d="M491.005 346.466s2.463 2.44 7.828-.432c0 0-2.174 3.88-4.349 3.447-2.172-.433-3.48-3.015-3.48-3.015" transform="translate(.58)"/>
        <path fill="#2E3054" d="M446.611 368.91L447.988 368.91 447.988 367.571 446.611 367.571z" transform="translate(.58)"/>
        <path fill="#2A2B7C" d="M449.23 367h5.943c.338 0 .758.203.93.449l2.338 3.333c.174.246.042.452-.296.452h-5.241c-.336 0-.756-.206-.925-.455l-.566-.815c-.174-.25-.592-.455-.93-.455h-2.699c-.34 0-.616-.236-.616-.524v-1.456c0-.291.276-.53.616-.53h1.447" transform="translate(.58)"/>
        <path fill="#2A2B7C" d="M450.896 369.494s-.309 1.536-2.612 2.458c-2.307.925-1.742 1.494-.87 1.362.87-.132 3.482-.748 4.841-2.47l-.611-1.951-.748.601" transform="translate(.58)"/>
        <path fill="#FFF" d="M452.54 373.627c0 .438.416.788.923.788h4.354c.51 0 .922-.35.922-.788v-1.58c0-.438-.413-.79-.922-.79h-4.354c-.507 0-.922.352-.922.79v1.58" transform="translate(.58)"/>
        <path fill="#FFBEC1" d="M458.473 373.627s3.725 21.778 3.991 22.959c.261 1.158-.45 2.833-6.655 2.893h-.338c-6.206-.06-6.921-1.735-6.655-2.893.263-1.18 3.725-22.959 3.725-22.959h5.932" transform="translate(.58)"/>
        <path fill="#FFD7DF" d="M452.54 373.627h2.335l.134 25.84c-5.778-.135-6.45-1.755-6.193-2.881.263-1.18 3.725-22.959 3.725-22.959" transform="translate(.58)"/>
        <path fill="#FFBEC1" d="M453.948 373.627h3.121l2.57 25.509c-.952.204-2.2.325-3.83.343h-.338c-1.63-.018-2.88-.14-3.835-.343l2.312-25.509" transform="translate(.58)"/>
        <path fill="#FA7071" d="M451.785 375.524c.925-.532 1.832-.905 2.677-1.444.877.937-1.253 2.76-1.906 3.332.981-.042 1.687-.954 2.652-1.016.308 1.923-1.931 2.741-2.555 4.262.894-.117 1.995-1.15 3.027-.631.355 1.67-2.635 2.997-3.572 3.999.731-.423 1.539-.972 2.421-.985 1.108-.012 1.101.903.293 1.62-.586.523-1.262.95-1.956 1.31-.273.142-1.205.835-1.488.845-.848.04-1.099-.914-1.168-1.655-.14-1.454-.229-2.937-.028-4.389.22-1.578.405-4.197 1.603-5.343v.095M516.869 404.394l5.012 5.297s-2.291.427-2.721 2.288c-.43 1.86-2.003 5.585-2.003 5.585-.326.768-.266 2.336-1.034 2.825-.763.485-1.079-.203-1.66-.66-.283 1.25-1.377.77-1.484-.289-.283.323-.678.393-1.098.534-.167-.613-.423-1.14-.44-1.786-1.7 1.607-1.37-1.176-1.022-2.096.575-1.54 1.405-3.022 2.3-4.398 1.86-2.863 3.722-4.295 4.15-7.3" transform="translate(.58)"/>
        <path fill="#FA7071" d="M515.67 408.61s-5.591 1.085-5.591 2.485c0 1.396 5.592-.311 5.592-.311v-2.175" transform="translate(.58)"/>
        <path fill="#3D4166" d="M485.378 372.183s7.444 2.292 14.313 0c0 0 2.577 5.44 6.871 8.875 0 0-1.632 20.824 3.05 24.298 0 0-15.645 4.906-25.668 2.043l-2.003-22.044 3.437-13.172" transform="translate(.58)"/>
        <path fill="#3D4166" d="M501.696 375.906s3.127-16.107 11.012-17.93l-3.854.178s-7.732 7.158-9.735 16.32c-1.412 6.457 2.577 1.432 2.577 1.432M486.236 359.014L487.379 374.186 485.378 373.615 483.944 359.3 486.236 359.014" transform="translate(.58)"/>
        <path fill="#2E3054" d="M487.3 380.857l12.217.621s.867 13.875-6.005 13.875c-6.874 0-6.213-14.496-6.213-14.496" transform="translate(.58)"/>
        <path fill="#FF4E50" d="M555.929 516.975c1.499-6.707 3.238-14.97 3.238-15.716 0-1.62-6.692-2.938-14.95-2.938-8.257 0-15.377 1.318-15.377 2.938 0 1.469 6.069 25.794 6.069 26.835 0 1.203 3.745 2.18 9.307 2.18 5.565 0 9.051-.977 9.051-2.18 0-.238.651-2.01 1.131-4.215l1.531-6.904" transform="translate(.58)"/>
        <path fill="#FFBEC1" d="M558.638 501.19c0 1.339-6.6 2.425-14.742 2.425-8.142 0-14.74-1.086-14.74-2.426 0-1.337 6.598-2.425 14.74-2.425 8.141 0 14.742 1.088 14.742 2.425" transform="translate(.58)"/>
        <path fill="#3D4166" d="M553.26 516.036c-.858 0-1.707-.147-2.545-.44-5.279-1.846-8.273-8.857-8.395-9.153-.162-.38.017-.815.398-.974.38-.157.817.017.974.398.03.067 2.868 6.697 7.518 8.32 1.781.626 3.643.415 5.52-.611.362-.197.82-.067 1.013.293.2.363.065.818-.293 1.014-1.404.768-2.803 1.153-4.19 1.153" transform="translate(.58)"/>
        <path fill="#D7D5E9" d="M302.147 500.77c-13.383 0-24.231-1.53-24.231-3.418 0-1.889 10.848-3.417 24.231-3.417 13.383 0 24.231 1.528 24.231 3.417 0 1.889-10.848 3.417-24.23 3.417" transform="translate(.58)"/>
        <path fill="#C8E0FE" d="M629.576 495.488c-21.161 0-38.314-1.528-38.314-3.417 0-1.889 17.153-3.417 38.314-3.417 21.16 0 38.313 1.528 38.313 3.417 0 1.889-17.153 3.417-38.313 3.417M362.826 555.01c-21.616 0-39.142-2.77-39.142-6.191 0-3.425 17.526-6.193 39.142-6.193 21.617 0 39.143 2.768 39.143 6.193 0 3.422-17.526 6.19-39.143 6.19M671.413 461.403c-13.612 0-24.646-1.242-24.646-2.776 0-1.133 6.024-2.107 14.663-2.54.832 1.014 1.717 1.822 2.646 2.401h-9.381c0 .987 5.723 1.782 12.776 1.782 7.058 0 12.782-.795 12.782-1.782h-9.384c.996-.619 1.945-1.508 2.828-2.627 12.54.132 22.362 1.32 22.362 2.766 0 1.534-11.037 2.776-24.646 2.776" transform="translate(.58)"/>
        <path fill="#FFF" d="M410.876 399.185c-2.572 0-4.66-2.087-4.66-4.66 0-2.572 2.088-4.66 4.66-4.66s4.66 2.088 4.66 4.66c0 2.573-2.088 4.66-4.66 4.66m-2.383-7.368c-.661 0-1.193.534-1.193 1.193 0 .656.532 1.19 1.193 1.19.658 0 1.193-.534 1.193-1.19 0-.659-.535-1.193-1.193-1.193" transform="translate(.58)"/>
        <path fill="#C6E9FF" d="M408.493 394.2c-.661 0-1.193-.534-1.193-1.19 0-.659.532-1.193 1.193-1.193.658 0 1.193.534 1.193 1.193 0 .656-.535 1.19-1.193 1.19" transform="translate(.58)"/>
        <path fill="#FFF" d="M391.926 390.778c-5.306 0-9.61-4.305-9.61-9.61 0-5.306 4.304-9.61 9.61-9.61 5.306 0 9.61 4.304 9.61 9.61 0 5.305-4.304 9.61-9.61 9.61m-4.916-15.197c-1.36 0-2.463 1.1-2.463 2.458 0 1.357 1.104 2.457 2.463 2.457 1.357 0 2.458-1.1 2.458-2.457 0-1.357-1.1-2.458-2.458-2.458" transform="translate(.58)"/>
        <path fill="#C6E9FF" d="M387.01 380.496c-1.36 0-2.463-1.1-2.463-2.457 0-1.357 1.104-2.458 2.463-2.458 1.357 0 2.458 1.1 2.458 2.458 0 1.357-1.1 2.457-2.458 2.457" transform="translate(.58)"/>
        <path fill="#FFF" d="M345.017 422.465c-3.762 0-6.814-3.052-6.814-6.815 0-3.763 3.052-6.814 6.814-6.814 3.763 0 6.815 3.051 6.815 6.814s-3.052 6.815-6.815 6.815m-3.484-10.776c-.967 0-1.747.782-1.747 1.742 0 .962.78 1.744 1.747 1.744.96 0 1.742-.782 1.742-1.744 0-.96-.783-1.742-1.742-1.742" transform="translate(.58)"/>
        <path fill="#C6E9FF" d="M341.533 415.175c-.967 0-1.747-.782-1.747-1.744 0-.96.78-1.742 1.747-1.742.96 0 1.742.782 1.742 1.742 0 .962-.783 1.744-1.742 1.744" transform="translate(.58)"/>
        <path fill="#FFF" d="M428.583 127.363c-9.093 0-16.464-7.371-16.464-16.464 0-9.094 7.37-16.465 16.464-16.465 9.094 0 16.465 7.371 16.465 16.465 0 9.093-7.371 16.464-16.465 16.464m-5.28-28.89c-2.573 0-4.66 2.084-4.66 4.66 0 2.574 2.087 4.659 4.66 4.659 2.571 0 4.659-2.085 4.659-4.66s-2.088-4.66-4.66-4.66M449.397 86.978c-2.403 0-4.35-1.948-4.35-4.349 0-2.4 1.947-4.35 4.35-4.35 2.403 0 4.35 1.95 4.35 4.35 0 2.4-1.947 4.35-4.35 4.35M537.001 321.211c-6.864 0-12.426-5.564-12.426-12.426 0-1.046.13-2.065.373-3.037h20.324v-6.235c2.55 2.274 4.156 5.587 4.156 9.272 0 6.862-5.562 12.426-12.427 12.426m7.928-21.994h-15.855c2.15-1.784 4.913-2.858 7.927-2.858 3.015 0 5.779 1.074 7.928 2.858" transform="translate(.58)"/>
        <path fill="#FFF" d="M545.272 305.748h-20.324c.654-2.597 2.125-4.873 4.126-6.531h15.855c.117.097.232.194.343.296v6.235" transform="translate(.58)"/>
        <path fill="#F2FCFF" d="M105.42 236.738c-36.45 0-66-29.55-66-66 0-36.451 29.55-66 66-66 36.451 0 66 29.549 66 66 0 36.45-29.549 66-66 66" transform="translate(.58)"/>
        <path fill="#E4F8FF" d="M343.464 41.001c-5.661 0-10.252-4.59-10.252-10.251 0-5.662 4.59-10.252 10.252-10.252 5.661 0 10.252 4.59 10.252 10.252 0 5.661-4.59 10.251-10.252 10.251" transform="translate(.58)"/>
        <path fill="#BDE5FF" d="M423.302 107.792c-2.572 0-4.66-2.085-4.66-4.66s2.088-4.66 4.66-4.66 4.66 2.085 4.66 4.66-2.088 4.66-4.66 4.66" transform="translate(.58)"/>
        <path fill="#FFF" d="M532.342 215.589c-2.573 0-4.66-2.085-4.66-4.66s2.087-4.66 4.66-4.66c2.572 0 4.66 2.085 4.66 4.66s-2.088 4.66-4.66 4.66" transform="translate(.58)"/>
        <path fill="#2E4F54" d="M669.288 432.51c2.552-5.003 6.62-7.47 5.018-13.975-.647-2.592-2.602-4.222-3.5-6.513-1.125-2.853-.188-3.413.19-6.422.81-6.504-3.281-7.849-5.642-12.8-1.645-3.451-1.153-7.505-3.358-11.155-2.229-3.713-6.392-7.016-7.222-11.432-.611 7.82-5.582 19.83.388 26.423-3.591 2.41-4.272 7.157-2.602 10.885.795 1.777 3.392 3.161 3.86 5.035.63 2.562-.957 2.654-1.166 4.898-.651 7.116 20.013 17.26 14.56 24.39l-.526-9.334" transform="translate(.58)"/>
        <path fill="#FFF" d="M657.302 385.626c-1.88-.698-3.343-1.583-4.688-2.627l.092-.644c1.417 1.141 2.757 1.956 4.494 2.63-.154-.974-.301-1.946-.44-2.908-.127-.85-.259-1.692-.39-2.542-.127-.793-.291-1.598-.445-2.369-.137-.666-.279-1.342-.39-2.008-.072-.407-.164-.892-.266-1.396-.209-1.04-.433-2.158-.53-3.182l.035-.367c.17.892.475 1.747.872 2.552l.172.885c.107.51.199.989.27 1.421.113.646.25 1.327.384 1.978.161.78.32 1.591.447 2.399.137.842.26 1.697.388 2.547.32 2.122.656 4.297 1.073 6.462 1.901-1.196 2.751-4.563 3.179-7.5.156.228.3.457.437.688-.472 3-1.436 6.257-3.499 7.398.052.234.092.47.144.708.457 2.088.997 4.16 1.583 6.209 1.834-2.15 3.204-4.732 3.917-7.295.075.378.152.756.239 1.136-.826 2.426-2.2 4.81-3.967 6.8.51 1.762 1.049 3.504 1.578 5.219l.067.216c.147.477.296.962.448 1.446.432-.648.952-1.25 1.461-1.829.51-.571 1.024-1.155 1.441-1.787.898-1.354 1.325-2.726 1.723-4.177l.427.561c-.373 1.313-.83 2.642-1.68 3.932-.44.656-.974 1.258-1.488 1.847-.565.638-1.151 1.304-1.594 2.023l-.139-.087c.669 2.194 1.34 4.426 1.931 6.672l.092.356c.438-.82 1.238-1.66 1.966-2.428.475-.485.917-.95 1.19-1.325 1.169-1.665 2.354-3.519 3.023-5.403.08.34.141.696.186 1.064-.71 1.64-1.745 3.218-2.754 4.66-.29.417-.748.892-1.237 1.399-.897.927-1.996 2.078-2.125 2.975.944 3.57 1.96 7.324 3.014 10.99.8 2.755 1.178 5.616 1.554 8.382l.087.651-.296.552.124 2.18c-.179-1.106-.33-2.217-.48-3.31-.36-2.742-.738-5.583-1.528-8.302-1.064-3.683-2.078-7.455-3.024-11.031-.122-.468-.234-.865-.336-1.268-.209-.79-.432-1.583-.659-2.378-1.038-.378-2.32-.545-3.563-.699-.962-.126-1.956-.253-2.836-.482-2.175-.557-3.693-1.533-5.221-2.597-.035-.236-.055-.485-.06-.726 1.628 1.136 3.166 2.202 5.423 2.781.845.22 1.819.343 2.766.46 1.126.152 2.286.3 3.3.612-.537-1.874-1.11-3.728-1.672-5.547-.507-.321-1.243-.453-1.966-.585-.564-.096-1.15-.203-1.643-.387-1.275-.48-3.358-1.263-4.737-2.654l.34-.448c1.097 1.136 2.826 1.914 4.59 2.577.448.167 1.007.264 1.552.366.556.097 1.135.199 1.63.382-.845-2.736-1.695-5.524-2.423-8.352l-.626-.02c-1.738-.142-3.932-.892-5.694-1.996-.042-.246-.082-.504-.117-.753 1.874 1.292 4.466 2.19 6.298 2.21-.229-.888-.438-1.783-.632-2.67-.305-1.411-.559-2.835-.792-4.247M669.81 436.956c-.077-.398-.154-.805-.221-1.208.22.383.422.763.586 1.136l-.365.072" transform="translate(.58)"/>
        <path fill="#5CC385" d="M633.095 400.557c5.403 3.164 20.81 1.504 18.747 11.194 7.11-.977 9.314 1.819 8.862 8.556.055-.728 2.617-.228 2.987-.01.612.366 1.357 1.549 1.708 2.17 1.11 2 1.267 4.277 1.538 6.504.33 2.657.9 5.296 1.603 7.863-4.558-5.537-20.97-5.42-18.073-12.202-2.542.325-7.217 1.18-9.25-.888-2.612-2.646.45-5.417 2.776-6.747-9.884-1.252-8.855-5.547-7.51-10.41l-1.737-2.078c-.79-1.18-1.39-2.612-1.65-3.952" transform="translate(.58)"/>
        <path fill="#97B8DA" d="M669.7 438.31c13.513-8.31 13.473-41.781 13.473-42.122l-.445.005c0 .336.042 33.56-13.266 41.735l.238.382" transform="translate(.58)"/>
        <path fill="#97B8DA" d="M674.345 433.228c.018.152-1.695-7.828-5.34-7.242-3.646.597 5.358 7.394 5.358 7.394l-.018-.152M677.106 429.026s-3.479-9.101-6.237-7.277c-2.752 1.824 6.237 7.277 6.237 7.277M678.995 423.871s-4.436-9.767-7.826-7.277c-2.562 1.874 7.826 7.277 7.826 7.277M681.175 414.706s-3.39-9.558-6.074-7.155c-2.684 2.408 6.074 7.155 6.074 7.155M680.698 418.274s-5.644-8.564-7.58-5.524c-1.303 2.043 7.58 5.524 7.58 5.524M682.057 408.498s-3.937-10.384-6.58-7.685c-2.648 2.704 6.58 7.685 6.58 7.685M682.417 401.611s-2.291-9.093-3.752-6.39c-1.457 2.71 3.752 6.39 3.752 6.39M683.009 399.158s3.606-8.318.78-8.276c-2.818.045-.78 8.276-.78 8.276M682.417 401.611s8.47-2.51 6.097-4.903c-2.369-2.394-6.097 4.903-6.097 4.903M682.3 406.832s9.937-2.694 8.78-6.12c-1.16-3.428-8.78 6.12-8.78 6.12M681.297 412.012s13.156-3.082 11.104-6.554c-2.058-3.47-11.104 6.554-11.104 6.554M680.412 417.027s14.844-1.506 13.76-5.535c-1.086-4.033-13.76 5.535-13.76 5.535M678.292 425.318s13.231-5.025 14.275-1.283c1.049 3.743-14.275 1.283-14.275 1.283M680.223 420.258s10.893-6.102 12.29-2.498c1.399 3.621-12.29 2.498-12.29 2.498" transform="translate(.58)"/>
        <path fill="#97B8DA" d="M677.31 428.258s11.845-2.923 11.132 1.034c-.711 3.951-11.336-.266-11.336-.266l.204-.768" transform="translate(.58)"/>
        <path fill="#455FFF" d="M654.695 430.594c0 15.972 5.723 28.928 12.776 28.928 7.058 0 12.782-12.956 12.782-28.928h-25.558" transform="translate(.58)"/>
        <path fill="#BED5FE" d="M667.471 460.27c-7.053 0-12.776-.795-12.776-1.782h9.381c1.081.674 2.22 1.034 3.395 1.034 1.176 0 2.316-.36 3.398-1.034h9.384c0 .987-5.724 1.782-12.782 1.782" transform="translate(.58)"/>
        <path fill="#88B8F9" d="M667.471 459.522c-1.175 0-2.314-.36-3.395-1.034h6.793c-1.082.674-2.222 1.034-3.398 1.034" transform="translate(.58)"/>
        <path fill="#FFF" d="M659.879 437.868c-1.484 0-2.694-1.116-2.694-2.498 0-1.384 1.21-2.5 2.694-2.5 1.486 0 2.689 1.116 2.689 2.5 0 1.382-1.203 2.498-2.69 2.498" transform="translate(.58)"/>
        <path fill="#C8E0FE" d="M252.025 453.798c-10.291 0-18.634-.92-18.634-2.055 0-1.136 8.343-2.055 18.634-2.055 10.289 0 18.632.92 18.632 2.055 0 1.136-8.343 2.055-18.632 2.055" transform="translate(.58)"/>
        <path fill="#455FFF" d="M244.706 436.43c0 8.767 3.658 15.872 8.179 15.872 4.518 0 8.179-7.105 8.179-15.873h-16.358" transform="translate(.58)"/>
        <path fill="#F3A9B8" d="M254.495 437.575c2.47-1.382 7.282-2.791 8.266-6.111 1.608-5.364-4.757-4.168-7.42-2.945 1.508-1.452 7.935-4.486 6.416-7.287-1.553-2.853-6.31 1.71-6.014 4.16 1.903-3.874 3.072-13.296.457-17.09-2.346-3.398-4.71-.485-5.18 2.524-.62 3.97.155 8.023 1.865 11.591-1.196-1.816-3.773-5.952-6.427-3.961.363 3.616 4.155 7.073 5.73 10.202-1.677-1.158-7.032-2.707-6.789.84.214 3.111 6.412 4.033 7.583 6.064l1.513 2.013" transform="translate(.58)"/>
        <path fill="#2E4F54" d="M253.742 436.566c.462-1.936.808-5.582 2.316-7.068 2.297-2.262 2.068 1.15 1.064 2.565 2.378-1.971 5.985-7.67 8.994-8.301 4.486-.937-2.038 5.206-2.76 6.193 1.885-.189 8.59-3.243 8.8-.204.24 3.417-7.842 3.825-10.006 4.6 1.404.826 3.004 2.143 2.651 3.937-2.897 1.039-4.155-.43-6.518-1.499-1.327 1.728-4.136 2.018-5.555.281l1.014-.504" transform="translate(.58)"/>
        <path fill="#5CC385" d="M254.495 438.08c-.5-.699-4.165-12.188-5.358-7.14-1.267-2.431-5.19-10.839-8.713-6.99-3.363 3.674 1.635 8.766 5.408 9.072-1.67 1.205-4.093 3.288-.922 4.302 2.184.698 5.144-.723 7.314-.758l2.271 1.513" transform="translate(.58)"/>
        <path fill="#ABC2F6" d="M271.037 227.965c0 16.443-13.33 29.766-29.768 29.766-16.44 0-29.768-13.323-29.768-29.766 0-16.444 13.328-29.768 29.768-29.768 16.437 0 29.768 13.324 29.768 29.768M615.242 25.108c0 13.868-11.244 25.106-25.109 25.106-13.865 0-25.108-11.238-25.108-25.106C565.025 11.238 576.268 0 590.133 0s25.109 11.238 25.109 25.108" transform="translate(.58)"/>
        <path fill="#A2DFF6" d="M679.445 92.212c0 15.697-12.727 28.419-28.424 28.419-15.696 0-28.423-12.722-28.423-28.419 0-15.704 12.727-28.426 28.423-28.426 15.697 0 28.424 12.722 28.424 28.426" transform="translate(.58)"/>
        <path fill="#FFC5C0" d="M399.33 45.76c0 14.211-11.522 25.73-25.733 25.73-14.21 0-25.732-11.519-25.732-25.73 0-14.212 11.522-25.732 25.732-25.732 14.211 0 25.733 11.52 25.733 25.733" transform="translate(.58)"/>
        <path fill="#FFF" d="M366.495 62.881h14.424l7.003-26.964H359.49l7.006 26.964zm14.906 1.243h-15.388c-.284 0-.53-.191-.602-.465l-7.326-28.207.111-.537.49-.241h30.04l.491.241.11.537-7.324 28.207c-.073.274-.319.465-.602.465z" transform="translate(.58)"/>
        <path fill="#FFF" d="M384.622 53.186c-4.697 0-10.895-4.684-13.12-12.137-.099-.331.087-.676.418-.776.33-.092.676.092.773.42 2.311 7.744 8.778 11.596 12.419 11.228 1.486-.134 2.51-.852 2.947-2.072.654-1.81-.087-4.265-1.802-5.975-.243-.243-.243-.636 0-.88.241-.24.636-.243.878-.002 2.045 2.04 2.905 5.033 2.095 7.277-.61 1.685-2.03 2.711-4.007 2.893l-.601.024" transform="translate(.58)"/>
        <path fill="#FFF" d="M371.296 37.85c-.75 0-1.362.611-1.362 1.364 0 .751.612 1.362 1.362 1.362.753 0 1.365-.611 1.365-1.362 0-.753-.612-1.364-1.365-1.364zm0 3.969c-1.436 0-2.604-1.168-2.604-2.605 0-1.436 1.168-2.607 2.604-2.607 1.437 0 2.607 1.171 2.607 2.607 0 1.437-1.17 2.605-2.607 2.605zM359.39 35.708c-.453-.075-.674-.4-.612-.736.333-1.752 1.871-3.022 3.66-3.022.396 0 .791.065 1.166.189.967-1.81 3.122-2.838 5.142-2.443 1.042-2.386 3.4-3.954 6.042-3.954 2.716 0 5.127 1.663 6.121 4.133.78-.408 1.645-.619 2.547-.619 3.052 0 5.537 2.483 5.537 5.537l-.01.326c-.014.34-.32.621-.65.589-.344-.018-.607-.308-.592-.654l.01-.26c0-2.37-1.926-4.295-4.295-4.295-.917 0-1.789.283-2.522.817l-.574.087-.393-.43c-.619-2.348-2.749-3.988-5.18-3.988-2.303 0-4.343 1.468-5.071 3.65l-.311.36-.475.033c-1.737-.579-3.785.393-4.426 2.135l-.365.368-.515-.038c-.37-.198-.768-.3-1.185-.3-1.193 0-2.217.845-2.438 2.008-.057.3-.318.507-.612.507M583.44 34.704c4.402 2.927 8.279 5.003 10.225 5.994-.31-2.38 1.178-5.296 1.856-6.474l-16.837-11.293c-.83 1.076-2.965 3.567-5.284 4.178.353.306.788.673 1.293 1.09.487-.11 1.6-.673 2.972-2.074.209-.211.542-.249.79-.082.249.166.343.487.226.763-.561 1.312-1.173 2.885-1.344 3.511 1.36 1.052 2.739 2.066 4.105 3.022.413-.305 1.077-.956 1.467-1.496.176-.246.5-.325.77-.199.271.13.41.433.333.721-.226.853-.472 1.85-.571 2.339zm11.296 7.836l-.261-.057c-.055-.028-5.522-2.583-12.036-6.952-.268-.181-.39-.263-.186-1.25l-.612.373-.581-.067c-1.578-1.096-3.176-2.272-4.747-3.492-.306-.238-.505-.392.276-2.448-.79.52-1.511.818-2.046.818l-.444-.144c-1.698-1.397-2.66-2.287-2.66-2.287-.203-.186-.256-.487-.131-.735.124-.246.407-.376.668-.33 2.324.444 5.174-2.976 6.054-4.236.194-.28.572-.353.858-.161l17.816 11.951c.284.187.36.567.177.853-.875 1.352-2.868 5.286-1.623 7.204.151.234.129.537-.052.746l-.47.214z" transform="translate(.58)"/>
        <path fill="#FFF" d="M596.423 35.017l-.345-.104c-.286-.192-.36-.58-.172-.863l1.156-1.727c.507-.753.689-1.658.515-2.547-.177-.89-.689-1.658-1.442-2.163l-11.566-7.756c-.75-.502-1.65-.688-2.548-.512-.89.176-1.657.686-2.16 1.439l-1.162 1.727c-.192.286-.574.363-.86.17-.286-.192-.36-.577-.17-.863l1.159-1.727c.688-1.027 1.737-1.725 2.955-1.964 1.205-.24 2.448.008 3.48.699l11.563 7.756c1.029.688 1.73 1.737 1.968 2.955.241 1.213-.01 2.45-.7 3.48l-1.154 1.724-.517.276" transform="translate(.58)"/>
        <path fill="#FFF" d="M597.855 12.545c-.502-.333-.634-1.009-.296-1.508.333-.502 1.01-.634 1.511-.298.497.333.631 1.011.298 1.51-.335.5-1.011.632-1.513.296zm-5.547 11.671l9.702-13.102-4.401-2.952-8.602 13.84 3.3 2.214zM660.535 105.359H650.22c-.343 0-.621-.278-.621-.621 0-.343.278-.622.621-.622h10.314c.343 0 .621.279.621.622 0 .343-.278.62-.621.62M646.871 101.574c-.343 0-.621-.278-.621-.621V90.154c0-4.983 4.053-9.034 9.036-9.034h2.311c4.983 0 9.04 4.051 9.04 9.034v7.227c0 .346-.28.622-.622.622-.343 0-.621-.276-.621-.622v-7.227c0-4.297-3.497-7.79-7.797-7.79h-2.31c-4.3 0-7.795 3.493-7.795 7.79v10.799c0 .343-.278.62-.62.62" transform="translate(.58)"/>
        <path fill="#FFF" d="M639.1 101.847c-.343 0-.622-.276-.622-.621V79.383c0-5.641 4.593-10.231 10.235-10.231 5.644 0 10.234 4.59 10.234 10.231v2.135c0 .343-.278.621-.621.621-.34 0-.622-.278-.622-.62v-2.136c0-4.958-4.033-8.989-8.991-8.989-4.958 0-8.992 4.031-8.992 8.99v21.842c0 .345-.278.621-.621.621" transform="translate(.58)"/>
        <path fill="#FFF" d="M643.499 101.847c-.343 0-.622-.276-.622-.621V79.383c0-3.22 2.617-5.838 5.836-5.838 3.22 0 5.84 2.617 5.84 5.838v2.336c0 .343-.278.622-.621.622-.343 0-.622-.279-.622-.622v-2.336c0-2.535-2.062-4.595-4.597-4.595-2.533 0-4.593 2.06-4.593 4.595v21.843c0 .345-.28.621-.621.621M665.187 98.067c-2.458 0-4.46 2.003-4.46 4.461 0 2.46 2.002 4.464 4.46 4.464 2.46 0 4.464-2.003 4.464-4.464 0-2.458-2.003-4.46-4.464-4.46zm0 10.167c-3.146 0-5.703-2.56-5.703-5.706 0-3.144 2.557-5.703 5.703-5.703 3.147 0 5.706 2.56 5.706 5.703 0 3.147-2.56 5.706-5.706 5.706z" transform="translate(.58)"/>
        <path fill="#FFF" d="M632.914 105.145h16.388v-.68c0-1.209-.982-2.19-2.187-2.19H635.1c-1.248 0-2.187.877-2.187 2.038v.832zm17.009 1.243h-17.63c-.343 0-.622-.279-.622-.621v-1.454c0-1.84 1.506-3.28 3.43-3.28h12.014c1.888 0 3.43 1.537 3.43 3.431v1.303c0 .342-.282.62-.622.62zM230.62 221.638l-.42.651c-.659 1.01-.368 2.356.64 3.012l5.61 3.644-7.918 11.32 2.88 1.871 7.22-11.777 5.507 3.576c1.01.656 2.356.37 3.012-.636l.428-.654-16.96-11.007M248.498 231.47l-.338-.1-17.021-11.054c-.27-.174-.363-.527-.211-.81l6.536-12.4c.156-.3.534-.414.837-.258.304.16.42.537.259.84l-6.27 11.895 15.985 10.38 7.12-13.002c.166-.303.547-.413.842-.246.301.164.41.542.249.842l-7.44 13.59-.394.303-.154.02" transform="translate(.58)"/>
        <path fill="#BCCEF8" d="M256.073 244.447H225.42v-37.05h11.89l-6.382 12.109c-.152.283-.06.636.211.81l17.021 11.054.338.1.154-.02.393-.304 7.028-12.836v26.137m-25.453-22.809l-.42.651c-.659 1.01-.368 2.356.64 3.012l5.61 3.644-7.918 11.32 2.88 1.871 7.22-11.777 5.507 3.576c.368.238.778.353 1.186.353.713 0 1.409-.348 1.826-.99l.428-.653-16.96-11.007" transform="translate(.58)"/>
        <path fill="#FFF" d="M231.412 242.136l-2.88-1.871 7.918-11.32-5.61-3.644c-1.008-.656-1.299-2.003-.64-3.012l.42-.651 16.959 11.007-.428.654c-.417.64-1.113.989-1.826.989-.408 0-.818-.115-1.186-.353l-5.507-3.576-7.22 11.777M248.498 231.47l-.338-.1-17.021-11.054c-.27-.174-.363-.527-.211-.81l6.382-12.108h.703l-6.248 12.64 16.758 10.405 7.55-12.804v.671l-7.028 12.836-.393.304-.154.02" transform="translate(.58)"/>
        <path fill="#FFF" d="M226.042 243.826h29.41V208.02h-29.41v35.807zm30.031 1.243H225.42c-.342 0-.62-.279-.62-.622v-37.05c0-.342.278-.62.62-.62h30.653c.343 0 .622.278.622.62v37.05c0 .343-.279.622-.622.622z" transform="translate(.58)"/>
        <path fill="#FFF" d="M244.661 216.687L245.593 219.436 248.344 220.37 245.593 221.305 244.661 224.836 243.724 221.305 242.017 220.37 243.724 219.436 244.661 216.687M248.15 209.157L248.879 211.294 251.018 212.018 248.879 212.746 248.15 215.492 247.425 212.746 246.095 212.018 247.425 211.294 248.15 209.157" transform="translate(.58)"/>
    </g>
</svg>
